<svg height="512" viewBox="0 0 53 61" width="512" xmlns="http://www.w3.org/2000/svg"><g id="Page-1" fill="none" fill-rule="evenodd"><g id="031---BBQ" fill="rgb(0,0,0)" fill-rule="nonzero"><path id="Shape" d="m36 52c0 1.6568542 1.3431458 3 3 3s3-1.3431458 3-3-1.3431458-3-3-3-3 1.3431458-3 3zm4 0c0 .5522847-.4477153 1-1 1s-1-.4477153-1-1 .4477153-1 1-1 1 .4477153 1 1z"/><path id="Shape" d="m50 16h-11v-1c0-1.6568542-1.3431458-3-3-3h-2c-1.6568542 0-3 1.3431458-3 3v1h-4v-1c0-1.6568542-1.3431458-3-3-3h-2c-1.6568542 0-3 1.3431458-3 3v1h-4v-1c0-1.6568542-1.3431458-3-3-3h-2c-1.65685425 0-3 1.3431458-3 3v1h-3c-.55228475 0-1 .4477153-1 1s.44771525 1 1 1h3v1c.00331443.3414397.06556225.679743.184 1h-5.184c-1.1045695 0-2 .8954305-2 2v5c.00806023 4.6728865 2.96497917 8.831655 7.376 10.374l-5.271 18.872c-.4418278 1.5983121.49568793 3.2521722 2.094 3.694s3.2521722-.4956879 3.694-2.094l.8-2.849h22.9c1.4519746 3.6038235 5.2833845 5.6433642 9.0837956 4.835497s6.4709104-4.2295425 6.3314213-8.1123658c-.1394892-3.8828233-3.0486327-7.1040517-6.8972169-7.6371312l-1.661-6.647c4.5004959-1.4911049 7.5417803-5.6949253 7.55-10.436v-5c0-1.1045695-.8954305-2-2-2h-5.184c.1184378-.320257.1806856-.6585603.184-1v-1h11c.5522847 0 1 .4477153 1 1s-.4477153 1-1 1h-1c-.5522847 0-1 .4477153-1 1s.4477153 1 1 1h1c1.6568542 0 3-1.3431458 3-3s-1.3431458-3-3-3zm-19 2v1c.0033144.3414397.0655622.679743.184 1h-4.368c.1184378-.320257.1806856-.6585603.184-1v-1zm-10-3c0-.5522847.4477153-1 1-1h2c.5522847 0 1 .4477153 1 1v4c0 .5522847-.4477153 1-1 1h-2c-.5522847 0-1-.4477153-1-1zm-2 3v1c.0033144.3414397.0655622.679743.184 1h-4.368c.1184378-.320257.1806856-.6585603.184-1v-1zm-10 1v-4c0-.5522847.44771525-1 1-1h2c.5522847 0 1 .4477153 1 1v4c0 .5522847-.4477153 1-1 1h-2c-.55228475 0-1-.4477153-1-1zm-1.07 34c-.44863333.0000629-.84231764.2989032-.963.731l-1 3.579c-.1176934.4371008-.51433182.7406297-.967.74-.3107889-.0069587-.60147755-.1551299-.78970614-.4025328-.18822859-.2474028-.25348997-.5670832-.17729386-.8684672l5.285-18.921c.55619184.0904273 1.11852.137901 1.682.142h.362l-3.276 11.731c-.08416925.3013631-.02242874.6247507.16684489.8739086s.4842588.3953605.79715511.3950914h22.019c-.0919984.6634928-.0919984 1.3365072 0 2zm24.479-15 1.883 7.547c-1.2040616.8777747-2.1399983 2.0734052-2.703 3.453h-21.222l3.072-11zm12.591 14c0 3.3137085-2.6862915 6-6 6s-6-2.6862915-6-6 2.6862915-6 6-6c3.3123376.0033074 5.9966926 2.6876624 6 6zm-6.96-7.937c-.6632394.0808627-1.3136763.2448158-1.936.488l-1.634-6.551h.53c.5020131-.0037855 1.0031807-.0418742 1.5-.114zm5.96-20.063h-33c-.5522847 0-1 .4477153-1 1s.4477153 1 1 1h33v1c-.006061 4.9680501-4.0319499 8.993939-9 9h-24c-4.96805005-.006061-8.99393904-4.0319499-9-9v-1h5c.55228475 0 1-.4477153 1-1s-.44771525-1-1-1h-5v-2h42zm-10-4c-.5522847 0-1-.4477153-1-1v-4c0-.5522847.4477153-1 1-1h2c.5522847 0 1 .4477153 1 1v4c0 .5522847-.4477153 1-1 1z"/><path id="Shape" d="m23 2c.5522847 0 1-.44771525 1-1s-.4477153-1-1-1c-1.491 0-3 1.374-3 4 .1296573 1.27057602.7785084 2.43112558 1.793 3.207.621.621 1.207 1.207 1.207 1.793 0 .55228475.4477153 1 1 1s1-.44771525 1-1c-.1296573-1.27057602-.7785084-2.43112558-1.793-3.207-.621-.621-1.207-1.207-1.207-1.793 0-1.3.515-2 1-2z"/><path id="Shape" d="m35 2c.5522847 0 1-.44771525 1-1s-.4477153-1-1-1c-1.491 0-3 1.374-3 4 .1296573 1.27057602.7785084 2.43112558 1.793 3.207.621.621 1.207 1.207 1.207 1.793 0 .55228475.4477153 1 1 1s1-.44771525 1-1c-.1296573-1.27057602-.7785084-2.43112558-1.793-3.207-.621-.621-1.207-1.207-1.207-1.793 0-1.3.515-2 1-2z"/><path id="Shape" d="m11 2c.5522847 0 1-.44771525 1-1s-.4477153-1-1-1c-1.491 0-3 1.374-3 4 .12965729 1.27057602.77850835 2.43112558 1.793 3.207.621.621 1.207 1.207 1.207 1.793 0 .55228475.4477153 1 1 1s1-.44771525 1-1c-.1296573-1.27057602-.7785084-2.43112558-1.793-3.207-.621-.621-1.207-1.207-1.207-1.793 0-1.3.515-2 1-2z"/></g></g></svg>