<?xml version="1.0" encoding="iso-8859-1"?>
<!-- Generator: Adobe Illustrator 19.0.0, SVG Export Plug-In . SVG Version: 6.00 Build 0)  -->
<svg version="1.1" id="Capa_1" xmlns="http://www.w3.org/2000/svg" xmlns:xlink="http://www.w3.org/1999/xlink" x="0px" y="0px"
	 viewBox="0 0 512 512" style="enable-background:new 0 0 512 512;" xml:space="preserve">
<g>
	<g>
		<path d="M503.467,452.267H8.533c-4.71,0-8.533,3.814-8.533,8.533C0,489.037,22.963,512,51.2,512h409.6
			c28.237,0,51.2-22.963,51.2-51.2C512,456.081,508.186,452.267,503.467,452.267z M460.8,494.933H51.2
			c-15.872,0-29.252-10.889-33.058-25.6H493.85C490.061,484.045,476.672,494.933,460.8,494.933z"/>
	</g>
</g>
<g>
	<g>
		<path d="M465.033,293.734c-1.596-2.261-4.198-3.601-6.963-3.601H53.931c-2.765,0-5.376,1.348-6.972,3.601
			c-1.596,2.253-1.997,5.146-1.084,7.757l44.979,128.017c8.422,23.825,31.053,39.825,56.32,39.825c0.009,0,0.026,0,0.026,0h217.6
			c0.008,0,0.008,0,0.017,0c25.276,0,47.906-16,56.329-39.842l44.971-128C467.029,298.889,466.628,295.996,465.033,293.734z
			 M405.06,423.825c-6.016,17.016-22.187,28.442-40.243,28.442c0,0-0.009,0-0.017,0H147.2c-0.009,0-0.009,0-0.017,0
			c-18.057,0-34.219-11.435-40.235-28.424L65.971,307.2h380.058L405.06,423.825z"/>
	</g>
</g>
<g>
	<g>
		<path d="M410.385,26.351c-0.094,0-0.896,0.017-1.041,0.017h-0.009c-0.008,0-0.008,0-0.008,0l-203.904,6.246
			C193.195,12.629,168.499,0,140.8,0c-39.996,0-72.533,26.795-72.533,59.733s32.538,59.733,72.533,59.733
			c27.665,0,52.395-12.629,64.691-32.614l203.853,6.238c18.125,0.674,33.809-13.943,34.372-32.307
			c0.009-0.094,0.017-0.956,0.017-1.05C443.742,41.344,428.783,26.368,410.385,26.351z M410.377,76.049
			c-0.171,0-0.333-0.009-0.512-0.009l-209.067-6.4c-3.328-0.111-6.477,1.775-7.945,4.804C184.755,91.17,163.84,102.4,140.8,102.4
			c-30.583,0-55.467-19.14-55.467-42.667s24.883-42.667,55.467-42.667c23.057,0,43.938,11.221,51.959,27.93
			c1.459,3.046,4.668,4.966,7.953,4.838l209.143-6.4l-0.256-8.533l0.785,8.525c8.994,0,16.299,7.322,16.282,16.828
			C426.402,69.069,419.14,76.049,410.377,76.049z"/>
	</g>
</g>
<g>
	<g>
		<path d="M165.606,61.397l-5.274,3.891c-13.116,9.882-31.761,8.576-43.358-3.055L104.9,74.291
			c9.685,9.702,22.613,14.669,35.584,14.669c10.564,0,21.154-3.285,30.054-9.993l5.205-3.84L165.606,61.397z"/>
	</g>
</g>
<g>
	<g>
		<path d="M179.2,93.867V179.2c0,4.702-3.831,8.533-8.533,8.533c-4.702,0-8.533-3.831-8.533-8.533v-25.6
			c0-14.114-11.486-25.6-25.6-25.6s-25.6,11.486-25.6,25.6v8.533c0,4.702-3.831,8.533-8.533,8.533c-4.702,0-8.533-3.831-8.533-8.533
			v-76.8H76.8v76.8c0,14.114,11.486,25.6,25.6,25.6s25.6-11.486,25.6-25.6V153.6c0-4.702,3.831-8.533,8.533-8.533
			c4.702,0,8.533,3.831,8.533,8.533v25.6c0,14.114,11.486,25.6,25.6,25.6s25.6-11.486,25.6-25.6V93.867H179.2z"/>
	</g>
</g>
<g>
	<g>
		<path d="M486.4,256H25.6C11.486,256,0,267.486,0,281.6s11.486,25.6,25.6,25.6h460.8c14.114,0,25.6-11.486,25.6-25.6
			S500.514,256,486.4,256z M486.4,290.133H25.6c-4.702,0-8.533-3.823-8.533-8.533s3.831-8.533,8.533-8.533h460.8
			c4.71,0,8.533,3.823,8.533,8.533S491.11,290.133,486.4,290.133z"/>
	</g>
</g>
<g>
	<g>
		<path d="M263.603,193.656c6.135-6.178,9.506-14.379,9.481-23.083c-0.026-8.713-3.439-16.887-9.574-22.98
			c-6.042-6.101-6.042-16.026,0-22.118c3.319-3.345,3.302-8.747-0.051-12.066c-3.354-3.319-8.755-3.302-12.066,0.051
			c-12.612,12.723-12.612,33.425,0.043,46.191c2.944,2.935,4.565,6.827,4.582,10.974s-1.596,8.055-4.625,11.102
			c-12.621,12.723-12.621,33.425,0,46.148c1.664,1.681,3.866,2.526,6.059,2.526c2.176,0,4.343-0.828,6.008-2.466
			c3.354-3.319,3.371-8.721,0.051-12.066C257.468,209.766,257.468,199.842,263.603,193.656z"/>
	</g>
</g>
<g>
	<g>
		<path d="M348.937,193.664c6.135-6.178,9.506-14.379,9.481-23.083c-0.026-8.713-3.439-16.887-9.574-22.98
			c-6.042-6.101-6.042-16.026,0-22.118c3.319-3.354,3.302-8.755-0.051-12.075c-3.354-3.319-8.747-3.302-12.066,0.051
			c-12.612,12.723-12.612,33.425,0.043,46.191c2.944,2.935,4.565,6.827,4.582,10.974c0.017,4.147-1.596,8.055-4.625,11.102
			c-12.621,12.723-12.621,33.425,0,46.148c1.664,1.681,3.857,2.526,6.059,2.526c2.176,0,4.344-0.828,6.008-2.449
			c3.354-3.328,3.371-8.721,0.051-12.075C342.801,209.775,342.801,199.851,348.937,193.664z"/>
	</g>
</g>
<g>
	<g>
		<path d="M306.27,193.656c6.135-6.178,9.506-14.379,9.481-23.083c-0.026-8.713-3.439-16.887-9.617-23.023
			c-3.345-3.319-8.738-3.302-12.066,0.034c-3.328,3.345-3.311,8.747,0.034,12.066c2.944,2.935,4.565,6.827,4.582,10.974
			c0.017,4.147-1.596,8.055-4.625,11.102c-12.621,12.723-12.621,33.425,0,46.148c1.664,1.681,3.857,2.526,6.059,2.526
			c2.176,0,4.344-0.828,6.008-2.458c3.354-3.328,3.371-8.721,0.051-12.075C300.134,209.766,300.134,199.842,306.27,193.656z"/>
	</g>
</g>
<g>
	<g>
		<path d="M383.983,204.749c0.017-4.147,1.638-8.047,4.625-11.017c12.621-12.723,12.621-33.425,0-46.148
			c-3.319-3.345-8.713-3.362-12.066-0.051c-3.354,3.328-3.371,8.721-0.051,12.075c6.042,6.093,6.042,16.026,0.043,22.076
			c-6.178,6.135-9.591,14.31-9.617,23.023c-0.026,8.704,3.345,16.905,9.6,23.194c1.647,1.655,3.797,2.475,5.956,2.475
			c2.185,0,4.378-0.845,6.05-2.517c3.337-3.328,3.294-8.772-0.026-12.109C385.579,212.804,383.966,208.896,383.983,204.749z"/>
	</g>
</g>
<g>
</g>
<g>
</g>
<g>
</g>
<g>
</g>
<g>
</g>
<g>
</g>
<g>
</g>
<g>
</g>
<g>
</g>
<g>
</g>
<g>
</g>
<g>
</g>
<g>
</g>
<g>
</g>
<g>
</g>
</svg>
